<svg width="1920" height="1080" viewBox="0 0 1920 1080" fill="none" xmlns="http://www.w3.org/2000/svg">
<rect width="1920" height="1080" fill="white"/>
<path d="M913.994 551.795V540.607H923.795C929.525 540.607 933.619 536.491 933.619 530.715C933.619 525.007 929.503 520.868 923.727 520.868H911.31V551.795H913.994ZM913.994 523.324H923.636C927.82 523.324 930.935 526.622 930.935 530.715C930.935 534.967 927.865 538.151 923.727 538.174H913.994V523.324Z" fill="#101010"/>
<path d="M966.156 551.795L952.898 520.868H950.237L937.003 551.795H939.845L943.188 543.973H959.948L963.291 551.795H966.156ZM951.465 524.598L951.556 524.257H951.579L951.67 524.598L958.947 541.63H944.189L951.465 524.598Z" fill="#101010"/>
<path d="M978.522 551.795V537.605H998.238V551.795H1000.94V520.868H998.238V535.149H978.522V520.868H975.839V551.795H978.522Z" fill="#101010"/>
<path d="M1024.43 551.795V523.324H1034.73V520.868H1011.47V523.324H1021.75V551.795H1024.43Z" fill="#101010"/>
<path d="M1071.02 520.868H1068.86L1047.99 547.224L1047.96 547.247V520.868H1045.28V551.795H1047.51L1068.32 525.53H1068.34V551.795H1071.02V520.868Z" fill="#101010"/>
<path d="M895.988 598.368V573.854H904.629V567.441H880.16V573.854H888.824V598.368H895.988Z" fill="#101010"/>
<path d="M935.302 598.368V591.955H920.497V585.679H933.027V579.675H920.497V573.831H935.097V567.441H913.289V598.368H935.302Z" fill="#101010"/>
<path d="M951.989 598.368V573.831H965.496V598.368H972.705V567.441H944.757V598.368H951.989Z" fill="#101010"/>
<path d="M983.366 599.096C988.005 599.096 992.735 596.662 992.735 590.295V573.854H1004.17V598.391H1011.34V567.463H985.526V589.567C985.526 591.705 984.73 592.705 983.161 592.705H981.342V599.096H983.366Z" fill="#101010"/>
<path d="M1037.21 599.073C1046.47 599.073 1054.02 591.841 1054.02 582.859C1054.02 573.854 1046.47 566.668 1037.21 566.668C1027.91 566.668 1020.38 573.854 1020.38 582.859C1020.38 591.841 1027.91 599.073 1037.21 599.073ZM1037.21 592.478C1031.89 592.478 1027.59 588.453 1027.59 582.882C1027.59 577.287 1031.84 573.262 1037.21 573.262C1042.55 573.262 1046.83 577.287 1046.83 582.882C1046.83 588.453 1042.55 592.478 1037.21 592.478Z" fill="#101010"/>
<path d="M1063.04 598.368H1070.25V573.854H1081.07V567.441H1063.04V598.368Z" fill="#101010"/>
<path d="M1103.19 599.073C1112.45 599.073 1120 591.841 1120 582.859C1120 573.854 1112.45 566.668 1103.19 566.668C1093.89 566.668 1086.37 573.854 1086.37 582.859C1086.37 591.841 1093.89 599.073 1103.19 599.073ZM1103.19 592.478C1097.87 592.478 1093.58 588.453 1093.58 582.882C1093.58 577.287 1097.83 573.262 1103.19 573.262C1108.54 573.262 1112.81 577.287 1112.81 582.882C1112.81 588.453 1108.54 592.478 1103.19 592.478Z" fill="#101010"/>
<path d="M886.641 644.94V618.425L898.421 633.98H899.331L911.178 618.425V644.94H913.862V614.013H911.497L898.921 630.568L898.898 630.591L886.255 614.013H883.958V644.94H886.641Z" fill="#101010"/>
<path d="M930.503 644.94V614.013H927.82V644.94H930.503Z" fill="#101010"/>
<path d="M957.878 645.509C964.473 645.509 970.363 641.87 972.023 635.048H969.271C967.748 640.233 963.268 642.985 957.81 642.985C950.351 642.985 944.598 637.254 944.598 629.454C944.598 621.677 950.351 615.855 957.81 615.855C963.291 615.855 967.748 618.652 969.271 623.815H972C970.363 617.015 964.45 613.354 957.878 613.354C948.85 613.354 941.914 620.472 941.914 629.454C941.914 638.391 948.85 645.509 957.878 645.509Z" fill="#101010"/>
<path d="M993.031 644.94V616.469H1003.33V614.013H980.068V616.469H990.347V644.94H993.031Z" fill="#101010"/>
<path d="M1034.87 644.94L1021.61 614.013H1018.95L1005.72 644.94H1008.56L1011.9 637.118H1028.66L1032 644.94H1034.87ZM1020.18 617.743L1020.27 617.402H1020.29L1020.38 617.743L1027.66 634.775H1012.9L1020.18 617.743Z" fill="#101010"/>
<path d="M886.678 551.795V523.173H900.875V516.292H898.338V520.704H883.958L883.958 551.795H886.678Z" fill="#101010"/>
<path fill-rule="evenodd" clip-rule="evenodd" d="M885.141 435C888.155 435 890.598 437.444 890.598 440.458V487.03C890.598 490.045 888.155 492.488 885.141 492.488C882.126 492.488 879.683 490.045 879.683 487.03V440.458C879.683 437.444 882.126 435 885.141 435Z" fill="#1473E2"/>
<path fill-rule="evenodd" clip-rule="evenodd" d="M852.394 522.687C852.394 524.295 851.091 525.598 849.483 525.598H802.911C801.303 525.598 800 524.295 800 522.687C800 521.08 801.303 519.777 802.911 519.777H849.483C851.091 519.777 852.394 521.08 852.394 522.687Z" fill="#69A8F2"/>
<path fill-rule="evenodd" clip-rule="evenodd" d="M862.441 500.304C860.736 502.009 857.972 502.009 856.266 500.304L823.335 467.372C821.63 465.667 821.63 462.902 823.335 461.197C825.04 459.492 827.804 459.492 829.509 461.197L862.441 494.129C864.146 495.834 864.146 498.598 862.441 500.304Z" fill="#3A8DEE"/>
</svg>
