<?xml version="1.0" encoding="UTF-8"?> <svg xmlns="http://www.w3.org/2000/svg" viewBox="0 0 440.86 144.12"> <defs> <style>.cls-1{fill:#231f20;}</style> </defs> <title>web_logo</title> <g id="bg"> <rect class="cls-1" x="67.31" width="5.62" height="49.91"></rect> <rect class="cls-1" x="36.53" y="10.42" width="5.62" height="49.91" transform="translate(-13.49 38.19) rotate(-45.01)"></rect> <rect class="cls-1" y="61.7" width="49.91" height="5.62"></rect> <path class="cls-1" d="M67.31,67.31h6.27l7.49,16.6c.81,1.74,1.62,4,1.62,4h.12s.87-2.15,1.62-4l7.66-16.6h6.15l2.55,29.36H95.34L94.06,79.21c-.06-1.74.06-5,.06-5H94s-.75,2-1.85,4.29l-7,14.69H80.37l-7-14.63c-.93-2.14-1.86-4.35-1.86-4.35h-.12s.18,3.31.06,5L70.22,96.67H64.76Z"></path> <path class="cls-1" d="M123.42,78.4h1.51v-.58c0-4.82-2.79-6.44-6.44-6.44a14.73,14.73,0,0,0-8.24,2.84L108,70.1c2.38-2,6.84-3.48,11-3.48,7.37,0,11.61,4.06,11.61,11.49V96.67h-5.28v-3a15.19,15.19,0,0,1,.17-2.32h-.11a10.83,10.83,0,0,1-9.64,6c-5.1,0-9.8-3.19-9.8-8.7C105.9,79.44,117.33,78.4,123.42,78.4ZM117,92.9c4.93,0,7.89-5,7.89-9.34v-1.1h-1.45c-4.18,0-12,.35-12,5.74C111.53,90.52,113.38,92.9,117,92.9Z"></path> <path class="cls-1" d="M135.66,91.92c4.3-.64,6.62-4.94,6.62-15.55V67.31H162V96.67h-5.63V72h-8.65v4.41c0,13.28-3.36,20.13-12,20.59Z"></path> <path class="cls-1" d="M170.65,67.31h5.63V96.67h-5.63Z"></path> <path class="cls-1" d="M199.43,67.31h13.92V62h4.53v10.1H205.06V96.67h-5.63Z"></path> <path class="cls-1" d="M266.82,78.4h1.51v-.58c0-4.82-2.78-6.44-6.44-6.44a14.73,14.73,0,0,0-8.24,2.84l-2.26-4.12c2.38-2,6.84-3.48,11-3.48,7.37,0,11.61,4.06,11.61,11.49V96.67h-5.28v-3a15.19,15.19,0,0,1,.17-2.32h-.11a10.83,10.83,0,0,1-9.64,6c-5.1,0-9.8-3.19-9.8-8.7C249.3,79.44,260.73,78.4,266.82,78.4Zm-6.38,14.5c4.93,0,7.89-5,7.89-9.34v-1.1h-1.45c-4.18,0-11.95.35-11.95,5.74C254.93,90.52,256.78,92.9,260.44,92.9Z"></path> <path class="cls-1" d="M282.25,67.31h5.63v12h14.86v-12h5.63V96.67h-5.63V84.08H287.88V96.67h-5.63Z"></path> <path class="cls-1" d="M324.15,72.13H313.93V67.31H340v4.82H329.72V96.67h-5.57Z"></path> <path class="cls-1" d="M345.5,67.31h5.39V84.84c0,1.56-.11,3.65-.17,3.94h.12a47,47,0,0,1,2.61-3.94L366.1,67.31h5.45V96.67H366.1V79.15c0-1.39.17-3.42.17-3.89h-.12a42.5,42.5,0,0,1-2.55,3.89L350.89,96.67H345.5Z"></path> <path class="cls-1" d="M73.06,118.88H62.85v-4.82H88.9v4.82H78.63v24.54H73.06Z"></path> <path class="cls-1" d="M106.25,113.37c8.29,0,12.7,6.2,12.7,13.75a16.92,16.92,0,0,1-.23,2.38H97.37c.29,6.32,4.81,9.74,10.09,9.74a13.27,13.27,0,0,0,8.65-3.42l2.38,4.12a17.57,17.57,0,0,1-11.37,4.18c-9.23,0-15.61-6.67-15.61-15.38C91.51,119.4,97.89,113.37,106.25,113.37Zm7,12.06c-.18-5-3.31-7.71-7.14-7.71-4.35,0-7.77,2.84-8.59,7.71Z"></path> <path class="cls-1" d="M125.74,114.06h25.65v29.36h-5.63V118.88H131.37v24.54h-5.63Z"></path> <path class="cls-1" d="M156.9,138.66c4.29-.63,6.61-4.93,6.61-15.55v-9h19.67v29.36h-5.63V118.7h-8.64v4.41c0,13.29-3.37,20.14-12,20.6Z"></path> <path class="cls-1" d="M205.75,113.37c8.76,0,15.84,6.44,15.84,15.31s-7.08,15.44-15.78,15.44S190,137.62,190,128.68,197.05,113.37,205.75,113.37Zm.06,25.87a10.51,10.51,0,0,0,0-21,10.08,10.08,0,0,0-10.1,10.44C195.71,134.83,200.24,139.24,205.81,139.24Z"></path> <path class="cls-1" d="M228.38,114.06h18.39v4.82H234v24.54h-5.63Z"></path> <path class="cls-1" d="M265.11,113.37c8.76,0,15.84,6.44,15.84,15.31s-7.08,15.44-15.78,15.44-15.84-6.5-15.84-15.44S256.4,113.37,265.11,113.37Zm.06,25.87a10.51,10.51,0,1,0-10.1-10.56C255.07,134.83,259.6,139.24,265.17,139.24Z"></path> <path class="cls-1" d="M303.58,114.06h6.26l7.49,16.6c.81,1.74,1.62,3.94,1.62,3.94h.12s.87-2.14,1.62-3.94l7.66-16.6h6.15l2.56,29.36H331.6L330.33,126c-.06-1.74.05-5,.05-5h-.11s-.76,2-1.86,4.29l-7,14.68h-4.82l-7-14.62c-.93-2.15-1.86-4.35-1.86-4.35h-.11s.17,3.31.05,5l-1.27,17.46H301Z"></path> <path class="cls-1" d="M344.6,114.06h5.63v29.36H344.6Z"></path> <path class="cls-1" d="M372.68,113.37c3.89,0,8.24,1.33,11,4.29l-2.67,4a11.89,11.89,0,0,0-8.13-3.37c-5.92,0-10.21,4.47-10.21,10.44a10.17,10.17,0,0,0,10.39,10.56,13.08,13.08,0,0,0,9.05-3.94l2.26,4.12a16.48,16.48,0,0,1-11.72,4.7c-9.28,0-15.72-6.56-15.72-15.38S363.45,113.37,372.68,113.37Z"></path> <path class="cls-1" d="M397.57,118.88H387.36v-4.82h26.05v4.82H403.14v24.54h-5.57Z"></path> <path class="cls-1" d="M433.72,125.14h1.51v-.58c0-4.81-2.79-6.44-6.44-6.44a14.67,14.67,0,0,0-8.24,2.85l-2.27-4.12c2.38-2,6.85-3.48,11-3.48,7.37,0,11.61,4.06,11.61,11.48v18.57h-5.28v-3a15.19,15.19,0,0,1,.17-2.32h-.12a10.82,10.82,0,0,1-9.63,6c-5.1,0-9.8-3.19-9.8-8.71C416.2,126.19,427.63,125.14,433.72,125.14Zm-6.38,14.51c4.93,0,7.89-5,7.89-9.34v-1.1h-1.45c-4.18,0-12,.34-12,5.74C421.82,137.27,423.68,139.65,427.34,139.65Z"></path> <path class="cls-1" d="M236.73,67.32H223.39V96.67H229V87.12h7.76a9.9,9.9,0,0,0,0-19.8Zm-1,15.33H229V71.78h6.75a5.44,5.44,0,1,1,0,10.87Z"></path> </g> </svg> 